HIERARCHY
ROOT character_A_root
{
	OFFSET 0.000000 0.000000 0.000000
	CHANNELS 6 Xposition Yposition Zposition Xrotation Yrotation Zrotation
	JOINT character_A_pelvis
	{
		OFFSET 0.000000 0.000000 0.000000
		CHANNELS 3 Xrotation Yrotation Zrotation
		JOINT character_A_spine
		{
			OFFSET -0.006400 0.538076 0.000000
			CHANNELS 3 Xrotation Yrotation Zrotation
			JOINT character_A_head
			{
				OFFSET 0.012744 0.245383 0.000000
				CHANNELS 3 Xrotation Yrotation Zrotation
				JOINT character_A_nose
				{
					OFFSET -0.008787 -0.131621 -0.002605
					CHANNELS 3 Xrotation Yrotation Zrotation
					End Site
					{
						OFFSET 0.000000 0.050000 0.000000
					}
				}
			}
			JOINT character_A_left_shoulder
			{
				OFFSET 0.108057 -0.069769 0.094471
				CHANNELS 3 Xrotation Yrotation Zrotation
				JOINT character_A_left_elbow
				{
					OFFSET 0.031628 -0.239596 -0.139088
					CHANNELS 3 Xrotation Yrotation Zrotation
					JOINT character_A_left_wrist
					{
						OFFSET 0.010597 -0.101834 -0.186326
						CHANNELS 3 Xrotation Yrotation Zrotation
						End Site
						{
							OFFSET 0.000000 0.050000 0.000000
						}
					}
				}
			}
			JOINT character_A_right_shoulder
			{
				OFFSET -0.114595 -0.059038 0.102763
				CHANNELS 3 Xrotation Yrotation Zrotation
				JOINT character_A_right_elbow
				{
					OFFSET -0.054650 -0.246550 -0.079184
					CHANNELS 3 Xrotation Yrotation Zrotation
					JOINT character_A_right_wrist
					{
						OFFSET -0.039546 -0.120930 -0.167408
						CHANNELS 3 Xrotation Yrotation Zrotation
						End Site
						{
							OFFSET 0.000000 0.050000 0.000000
						}
					}
				}
			}
		}
		JOINT character_A_left_hip
		{
			OFFSET 0.064495 -0.018473 0.101805
			CHANNELS 3 Xrotation Yrotation Zrotation
			JOINT character_A_left_knee
			{
				OFFSET -0.013415 -0.404926 0.097567
				CHANNELS 3 Xrotation Yrotation Zrotation
				JOINT character_A_left_ankle
				{
					OFFSET -0.033827 -0.357830 0.207383
					CHANNELS 3 Xrotation Yrotation Zrotation
					JOINT character_A_left_big_toe
					{
						OFFSET -0.008355 -0.113888 0.066374
						CHANNELS 3 Xrotation Yrotation Zrotation
						End Site
						{
							OFFSET 0.000000 0.050000 0.000000
						}
					}
					JOINT character_A_left_small_toe
					{
						OFFSET 0.019861 -0.105049 0.045203
						CHANNELS 3 Xrotation Yrotation Zrotation
						End Site
						{
							OFFSET 0.000000 0.050000 0.000000
						}
					}
					JOINT character_A_left_heel
					{
						OFFSET -0.015740 -0.054451 0.041248
						CHANNELS 3 Xrotation Yrotation Zrotation
						End Site
						{
							OFFSET 0.000000 0.050000 0.000000
						}
					}
				}
			}
		}
		JOINT character_A_right_hip
		{
			OFFSET -0.060818 -0.017714 0.289385
			CHANNELS 3 Xrotation Yrotation Zrotation
			JOINT character_A_right_knee
			{
				OFFSET 0.024497 -0.400024 0.102706
				CHANNELS 3 Xrotation Yrotation Zrotation
				JOINT character_A_right_ankle
				{
					OFFSET 0.016037 -0.354408 0.210815
					CHANNELS 3 Xrotation Yrotation Zrotation
					JOINT character_A_right_big_toe
					{
						OFFSET -0.000881 -0.112993 0.055364
						CHANNELS 3 Xrotation Yrotation Zrotation
						End Site
						{
							OFFSET 0.000000 0.050000 0.000000
						}
					}
					JOINT character_A_right_small_toe
					{
						OFFSET -0.021559 -0.104872 0.042888
						CHANNELS 3 Xrotation Yrotation Zrotation
						End Site
						{
							OFFSET 0.000000 0.050000 0.000000
						}
					}
					JOINT character_A_right_heel
					{
						OFFSET 0.008712 -0.057795 0.038858
						CHANNELS 3 Xrotation Yrotation Zrotation
						End Site
						{
							OFFSET 0.000000 0.050000 0.000000
						}
					}
				}
			}
		}
	}
}
MOTION
Frames: 12
Frame Time: 0.03333333
1.121943 -0.195791 -0.047218 0.000000 0.000000 0.000000 0.785749 1.294331 1.856574 -7.273437 -3.063323 -9.700416 5.337361 1.938230 38.691947 0.000000 0.000000 0.000000 46.590645 6.009503 34.852339 -24.114569 -15.233962 -5.678490 0.000000 0.000000 0.000000 -8.131129 13.009129 -11.048078 -12.567312 8.203347 10.967845 0.000000 0.000000 0.000000 -3.637697 -0.120796 2.535715 -8.353544 -8.795792 -24.287669 11.134923 8.932573 29.717736 0.000000 0.000000 0.000000 0.000000 0.000000 0.000000 0.000000 0.000000 0.000000 -8.275625 0.559036 8.671101 -15.571349 -7.393755 -31.997492 62.591188 -51.134588 71.518409 -0.000000 0.000000 0.000000 -0.000000 0.000000 0.000000 -0.000000 0.000000 0.000000
1.137580 -0.188062 -0.121740 0.000000 0.000000 0.000000 0.958685 0.823758 1.528146 -6.270478 -2.532532 -8.474666 4.267890 1.565263 39.246379 0.000000 0.000000 -0.000000 41.162042 3.491450 33.643060 -21.901417 -13.378560 -6.978315 -0.000000 0.000000 -0.000000 -3.145930 11.850488 -13.998937 -18.145062 11.655747 9.953073 -0.000000 0.000000 -0.000000 -6.549522 -0.055839 0.523016 -9.576760 -7.728602 -22.834873 15.305581 15.568984 23.807741 -0.000000 0.000000 -0.000000 -0.000000 0.000000 -0.000000 -0.000000 0.000000 -0.000000 -12.757875 0.564358 9.879438 -0.015180 -10.632929 -30.196206 56.513271 -50.197130 78.717770 0.000000 0.000000 0.000000 0.000000 0.000000 0.000000 0.000000 0.000000 0.000000
1.159045 -0.182455 -0.229831 0.000000 0.000000 0.000000 0.889660 0.522985 1.664280 -5.685420 -2.311999 -7.748936 3.770433 1.517907 38.725747 0.000000 0.000000 -0.000000 37.398457 1.707899 32.390738 -19.886794 -10.546320 -8.935049 -0.000000 0.000000 -0.000000 2.807127 10.719123 -17.542488 -21.855484 14.301301 9.311246 0.000000 0.000000 -0.000000 -9.262113 -0.068269 -2.289461 -11.228235 -6.700397 -20.947765 17.324341 21.902258 18.484145 0.000000 0.000000 0.000000 0.000000 0.000000 0.000000 0.000000 0.000000 0.000000 -15.169592 0.429858 8.815853 10.124735 -10.701850 -24.703212 56.438874 -51.454401 87.585098 -0.000000 0.000000 -0.000000 -0.000000 0.000000 -0.000000 -0.000000 0.000000 -0.000000
1.177761 -0.178092 -0.349396 0.000000 0.000000 0.000000 0.669873 0.027952 1.936877 -4.651399 -1.622819 -7.365332 2.977232 1.226896 36.916334 -0.000000 0.000000 -0.000000 34.610304 0.433553 31.487034 -18.612920 -7.369656 -10.934536 -0.000000 0.000000 -0.000000 7.177503 9.180657 -20.185893 -24.333394 16.189142 8.688580 0.000000 0.000000 -0.000000 -11.320892 0.321312 -4.519914 -12.787383 -5.978798 -19.497834 18.261863 26.516264 14.348345 0.000000 0.000000 0.000000 0.000000 0.000000 0.000000 0.000000 0.000000 0.000000 -17.263401 0.554585 7.417312 18.303053 -9.893955 -19.999777 64.656057 -51.129896 101.530861 -0.000000 0.000000 0.000000 -0.000000 0.000000 0.000000 -0.000000 0.000000 0.000000
1.196526 -0.173731 -0.432587 0.000000 0.000000 0.000000 0.504113 0.045029 1.818227 -3.519190 -1.701501 -6.774068 1.980590 1.181690 34.465090 -0.000000 0.000000 0.000000 30.552696 -1.245975 31.272837 -14.166242 -4.383569 -13.707812 0.000000 0.000000 0.000000 9.999331 8.244275 -22.963872 -26.537695 18.143372 8.253998 -0.000000 0.000000 -0.000000 -13.067229 0.208056 -6.219403 -13.664021 -5.553745 -17.965544 22.493490 30.493912 10.246609 0.000000 0.000000 0.000000 0.000000 0.000000 0.000000 0.000000 0.000000 0.000000 -17.554944 0.313097 6.224229 21.438486 -9.050211 -17.396204 76.461323 -46.857126 116.902758 0.000000 0.000000 -0.000000 0.000000 0.000000 -0.000000 0.000000 0.000000 -0.000000
1.212574 -0.170847 -0.477822 0.000000 0.000000 0.000000 0.169890 0.029345 1.967877 -2.722216 -1.642092 -6.804292 1.479887 1.130204 32.116758 -0.000000 0.000000 0.000000 28.086521 -2.242783 31.171701 -10.682238 -1.702312 -16.134800 -0.000000 0.000000 0.000000 11.803150 7.719019 -25.087293 -28.036964 19.275930 8.242534 0.000000 0.000000 -0.000000 -13.734938 0.206731 -7.566858 -14.252049 -5.477798 -17.234000 25.088759 33.293111 7.803472 -0.000000 0.000000 0.000000 -0.000000 0.000000 0.000000 -0.000000 0.000000 0.000000 -16.529689 0.318796 5.076552 21.819041 -8.424076 -15.951378 83.599374 -42.307264 125.502282 -0.000000 0.000000 -0.000000 -0.000000 0.000000 -0.000000 -0.000000 0.000000 -0.000000
1.226984 -0.164487 -0.488072 0.000000 0.000000 0.000000 -0.045363 0.279020 1.608318 -2.272658 -1.814064 -6.741213 1.234752 1.037624 31.304990 -0.000000 0.000000 -0.000000 24.317114 -3.464060 30.587711 -4.182512 -0.540996 -17.713571 -0.000000 0.000000 0.000000 10.249793 8.869559 -27.167865 -26.673489 20.273323 8.957236 -0.000000 0.000000 0.000000 -13.773053 -0.114038 -7.395835 -14.950094 -5.432338 -17.580428 28.223129 34.285138 4.467247 0.000000 0.000000 -0.000000 0.000000 0.000000 -0.000000 0.000000 0.000000 -0.000000 -15.001793 -0.040494 4.248362 21.420223 -8.361683 -15.402087 89.040108 -37.337812 131.207998 0.000000 0.000000 -0.000000 0.000000 0.000000 -0.000000 0.000000 0.000000 -0.000000
1.243447 -0.158534 -0.471113 0.000000 0.000000 0.000000 -0.273018 0.157631 1.011298 -1.708241 -1.573472 -6.494217 0.922823 0.874315 31.237659 -0.000000 0.000000 -0.000000 17.689500 -4.007384 25.790771 -4.660752 0.726693 -14.323579 0.000000 0.000000 -0.000000 7.183207 10.550184 -28.643792 -24.545940 21.929474 9.464847 -0.000000 0.000000 0.000000 -13.572299 0.100221 -4.736001 -14.820626 -5.738532 -21.474257 25.367625 27.929588 6.250205 0.000000 0.000000 0.000000 0.000000 0.000000 0.000000 0.000000 0.000000 0.000000 -12.570374 -0.120025 3.125404 18.793837 -8.155654 -14.842519 93.062256 -34.977159 131.621477 -0.000000 0.000000 -0.000000 -0.000000 0.000000 -0.000000 -0.000000 0.000000 -0.000000
1.258606 -0.151231 -0.444790 0.000000 0.000000 0.000000 -0.251524 -0.570903 0.061535 -1.664245 -0.194790 -6.174425 0.979994 0.164122 33.636708 0.000000 0.000000 0.000000 11.400095 -3.875723 20.140514 -7.638589 -0.169076 -8.894960 0.000000 0.000000 -0.000000 6.628439 10.425605 -28.731810 -26.528748 23.369665 9.338630 -0.000000 0.000000 -0.000000 -14.382333 0.911595 -1.105245 -10.415658 -6.578795 -24.028108 19.343297 20.638002 17.178644 0.000000 0.000000 -0.000000 0.000000 0.000000 -0.000000 0.000000 0.000000 -0.000000 -11.623117 0.196568 2.314699 16.589520 -8.232944 -14.789570 94.610646 -36.225302 127.161303 -0.000000 0.000000 0.000000 -0.000000 0.000000 0.000000 -0.000000 0.000000 0.000000
1.273251 -0.141657 -0.407978 0.000000 0.000000 0.000000 -0.640342 -1.067030 -0.369163 -3.080822 4.215173 -6.765397 3.272235 -3.538483 36.678046 -0.000000 0.000000 -0.000000 7.857244 -6.077726 15.411901 -10.192337 -3.289433 -3.431359 -0.000000 0.000000 0.000000 2.835767 10.301930 -29.678158 -23.343722 21.223354 12.830762 -0.000000 0.000000 -0.000000 -14.684250 1.762068 3.823074 -5.913020 -7.519297 -27.210242 17.466916 21.481971 24.770249 -0.000000 0.000000 0.000000 -0.000000 0.000000 0.000000 -0.000000 0.000000 0.000000 -9.605046 0.336143 0.299552 14.869432 -8.687098 -14.715182 94.974282 -36.194399 122.469286 -0.000000 0.000000 -0.000000 -0.000000 0.000000 -0.000000 -0.000000 0.000000 -0.000000
1.283886 -0.130430 -0.345738 0.000000 0.000000 0.000000 -1.522233 -1.347902 -0.348720 -3.933317 7.684400 -8.193372 5.587020 -6.369795 40.006781 0.000000 0.000000 0.000000 9.358962 -6.781996 13.452347 -19.315570 -7.168880 -0.204742 -0.000000 0.000000 0.000000 -3.398437 11.206671 -28.658231 -15.907705 18.395195 16.239099 -0.000000 0.000000 0.000000 -13.413063 2.498589 8.036558 -1.557171 -8.154057 -27.354009 17.702406 17.590949 29.777740 0.000000 0.000000 0.000000 0.000000 0.000000 0.000000 0.000000 0.000000 0.000000 -3.993010 0.348713 -2.661052 11.416950 -9.633321 -14.454318 99.077778 -32.632776 122.606697 0.000000 0.000000 -0.000000 0.000000 0.000000 -0.000000 0.000000 0.000000 -0.000000
1.288226 -0.119328 -0.278658 0.000000 0.000000 0.000000 -2.207730 -1.050862 -0.596691 -3.936690 10.199040 -9.988222 6.948691 -8.765293 40.460552 0.000000 0.000000 0.000000 11.909993 -7.694502 14.548976 -10.144108 -8.888062 2.309755 0.000000 0.000000 -0.000000 -8.884382 10.066960 -25.251155 -8.068797 16.037048 17.752577 0.000000 0.000000 0.000000 -11.629769 2.594753 11.443875 2.916056 -7.818590 -23.770260 16.454729 13.885559 29.682787 0.000000 0.000000 -0.000000 0.000000 0.000000 -0.000000 0.000000 0.000000 -0.000000 2.080149 -0.643491 -6.139860 8.771768 -10.326008 -12.945587 95.626008 -28.840447 118.603683 -0.000000 0.000000 -0.000000 -0.000000 0.000000 -0.000000 -0.000000 0.000000 -0.000000
